<?xml version="1.0" encoding="utf-8"?>
<!-- Generator: Adobe Illustrator 21.1.0, SVG Export Plug-In . SVG Version: 6.00 Build 0)  -->
<svg version="1.1" id="Layer_1" xmlns="http://www.w3.org/2000/svg" xmlns:xlink="http://www.w3.org/1999/xlink" x="0px" y="0px"
	 viewBox="0 0 24 24" style="enable-background:new 0 0 24 24;" xml:space="preserve">
<style type="text/css">
	.st0{fill:none;}
	.st1{fill:#919191;}
	.st2{fill:#A53D3D;}
</style>
<path class="st0" d="M0,2h24v24H0V2z M14,23.5c-0.6,0.2-1.3,0.4-2,0.5C12.7,23.9,13.3,23.7,14,23.5z M12,24c-0.7-0.1-1.3-0.3-2-0.5
	C10.7,23.7,11.3,23.9,12,24z"/>
<path class="st1" d="M9.6,14.4c-0.1-0.1-0.2-0.2-0.4-0.2C9.3,14.3,9.5,14.3,9.6,14.4z M14.8,14.2c-0.1,0.1-0.2,0.1-0.3,0.2
	C14.5,14.4,14.6,14.3,14.8,14.2z M12,17c-1.7-2.6-4.7-4.4-8.1-4.4c0,4.3,2.7,7.9,6.5,9.3c0.5,0.2,1,0.3,1.6,0.4
	c0.5-0.1,1.1-0.2,1.6-0.4c3.8-1.3,6.5-5,6.5-9.3C16.7,12.6,13.7,14.3,12,17z"/>
<path class="st2" d="M12,1.7c-2.7,0-4.8,2.2-4.8,4.8c0,3.6,4.8,8.9,4.8,8.9s4.8-5.2,4.8-8.9C16.8,3.9,14.7,1.7,12,1.7z M14.4,9.2
	h-1.7V7.1h-1.4v2.1H9.6V6.5h-1L12,3.3l3.5,3.1h-1V9.2z"/>
</svg>
