<?xml version="1.0" encoding="utf-8"?>
<!-- Generator: Adobe Illustrator 21.1.0, SVG Export Plug-In . SVG Version: 6.00 Build 0)  -->
<svg version="1.1" id="Layer_1" xmlns="http://www.w3.org/2000/svg" xmlns:xlink="http://www.w3.org/1999/xlink" x="0px" y="0px"
	 viewBox="0 0 24 24" style="enable-background:new 0 0 24 24;" xml:space="preserve">
<style type="text/css">
	.st0{fill:#FFFFFF;}
	.st1{fill:none;}
	.st2{fill:#8E0000;stroke:#7C0000;stroke-width:0.7;stroke-miterlimit:10;}
</style>
<polygon class="st0" points="12,5.3 6.4,10.5 8.9,15 16,14 17.6,9.9 "/>
<path class="st1" d="M0,2h24v24H0V2z M14,23.5c-0.6,0.2-1.3,0.4-2,0.5C12.7,23.9,13.3,23.7,14,23.5z M12,24c-0.7-0.1-1.3-0.3-2-0.5
	C10.7,23.7,11.3,23.9,12,24z"/>
<path class="st2" d="M12,3.8c-3.8,0-6.6,3.2-6.6,6.6c0,5,6.6,12.4,6.6,12.4s6.6-7.3,6.6-12.4C18.6,6.8,15.8,3.8,12,3.8z M15.3,14.3
	H13v-3h-2v3H8.7v-3.8H7.2L12,6l5,4.3h-1.3L15.3,14.3L15.3,14.3z"/>
</svg>
