<?xml version="1.0" encoding="utf-8"?>
<!-- Generator: Adobe Illustrator 21.1.0, SVG Export Plug-In . SVG Version: 6.00 Build 0)  -->
<svg version="1.1" id="Layer_1" xmlns="http://www.w3.org/2000/svg" xmlns:xlink="http://www.w3.org/1999/xlink" x="0px" y="0px"
	 viewBox="0 0 24 24" style="enable-background:new 0 0 24 24;" xml:space="preserve">
<style type="text/css">
	.st0{fill:#8E0000;stroke:#7C0000;stroke-miterlimit:10;}
	.st1{fill:none;}
	.st2{fill:#FFFFFF;}
</style>
<path class="st0" d="M21.6,23.3H2.4c-0.9,0-1.7-0.8-1.7-1.7V2.4c0-0.9,0.8-1.7,1.7-1.7h19.3c0.9,0,1.7,0.8,1.7,1.7v19.3
	C23.3,22.6,22.6,23.3,21.6,23.3z"/>
<path class="st1" d="M0,2h24v24H0V2z M14,23.5c-0.6,0.2-1.3,0.4-2,0.5C12.7,23.9,13.3,23.7,14,23.5z M12,24c-0.7-0.1-1.3-0.3-2-0.5
	C10.7,23.7,11.3,23.9,12,24z"/>
<path class="st2" d="M12,16c-1.4-2.2-4-3.7-6.8-3.7c0,3.6,2.3,6.7,5.5,7.8c0.4,0.2,0.8,0.3,1.3,0.3c0.4-0.1,0.9-0.2,1.3-0.3
	c3.2-1.1,5.5-4.2,5.5-7.8C16,12.3,13.4,13.7,12,16z"/>
<path class="st2" d="M12,2.8c-2.3,0-4,1.9-4,4c0,3,4,7.5,4,7.5s4-4.4,4-7.5C16,4.6,14.3,2.8,12,2.8z M14,9.1h-1.4V7.3h-1.2v1.8H10
	V6.8H9.1L12,4.1l3,2.6h-0.8L14,9.1L14,9.1z"/>
</svg>
